<svg width="43" height="43" viewBox="0 0 43 43" fill="none" xmlns="http://www.w3.org/2000/svg">
<path d="M22.7089 3.82871e-06C22.1834 -0.00021349 21.6793 0.207295 21.3062 0.577285L21.2863 0.592598L8.15126 8.17688L21.2526 21.2691V21.2767L36.9985 37.0134L39.9997 31.6096L29.1769 5.6396L24.1253 0.591066C23.9397 0.40335 23.7186 0.254422 23.4749 0.152949C23.2312 0.0514764 22.9698 -0.000513883 22.7058 3.82871e-06H22.7089Z" fill="#271566"/>
<path d="M8.18188 8.14648L0.594538 21.2616L0.579225 21.2815C0.395031 21.4664 0.24907 21.6857 0.149684 21.927C0.0502979 22.1683 -0.000564107 22.4268 4.71892e-06 22.6877C0.000573545 22.9487 0.0525622 23.207 0.152999 23.4478C0.253436 23.6887 0.400352 23.9074 0.58535 24.0914L0.593007 24.099L6.88032 30.3879L31.4783 40.0562L37.0398 36.9707L36.8898 36.8207L36.8515 36.8237L21.4303 21.3918H21.4119L8.18188 8.14648Z" fill="#4E2BCC"/>
<path d="M8.14819 8.15234L21.5512 21.5584H21.5711L36.9954 36.9888L42.8678 35.871L42.8754 18.5112L36.6754 12.4398C35.1305 11.0607 33.1938 10.1979 31.1353 9.97147L31.1384 9.90562L8.15126 8.15387L8.14819 8.15234Z" fill="#4E2BCC"/>
<path d="M8.16504 8.16895L21.5757 21.5674V21.5873L37.0092 37.0085L35.8868 42.8747H18.5132L12.4388 36.6762C11.0602 35.1311 10.1979 33.1945 9.97191 31.1362L9.90301 31.1423L8.16504 8.16895Z" fill="#271566"/>
</svg>
