<svg width="26" height="39" viewBox="0 0 26 39" fill="none" xmlns="http://www.w3.org/2000/svg">
<path opacity="0.6" d="M13.0015 0H6.50024C4.77627 0 3.12291 0.684845 1.90388 1.90388C0.684846 3.12291 0 4.77627 0 6.50024C0 8.22421 0.684846 9.87758 1.90388 11.0966C3.12291 12.3156 4.77627 13.0005 6.50024 13.0005H13.0015V0Z" fill="#4E2BCC"/>
<path opacity="0.4" d="M13.0015 13.0005H6.50024C4.77653 13.0005 3.12342 13.6852 1.90457 14.9041C0.685719 16.1229 0.000976563 17.776 0.000976562 19.4998C0.000976563 21.2235 0.685719 22.8766 1.90457 24.0954C3.12342 25.3143 4.77653 25.999 6.50024 25.999H13.0015V13.0005Z" fill="#4E2BCC"/>
<path d="M26 19.4998C26 21.2237 25.3151 22.8771 24.0961 24.0961C22.8771 25.3152 21.2237 26 19.4998 26C17.7758 26 16.1224 25.3152 14.9034 24.0961C13.6844 22.8771 12.9995 21.2237 12.9995 19.4998C12.9995 17.7758 13.6844 16.1224 14.9034 14.9034C16.1224 13.6844 17.7758 12.9995 19.4998 12.9995C21.2237 12.9995 22.8771 13.6844 24.0961 14.9034C25.3151 16.1224 26 17.7758 26 19.4998Z" fill="#4E2BCC"/>
<path opacity="0.2" d="M6.50019 26.001H13.0014V32.5002C13.001 33.7855 12.6196 35.0418 11.9053 36.1103C11.191 37.1788 10.1759 38.0115 8.9884 38.5032C7.80089 38.9949 6.49427 39.1234 5.23372 38.8726C3.97316 38.6217 2.81528 38.0028 1.90646 37.094C0.997642 36.1851 0.378686 35.0273 0.127848 33.7667C-0.12299 32.5062 0.00555357 31.1995 0.497226 30.012C0.988898 28.8245 1.82162 27.8095 2.89012 27.0952C3.95862 26.3809 5.21492 26.0014 6.50019 26.001Z" fill="#4E2BCC"/>
<path opacity="0.8" d="M12.9995 0H19.4988C21.2227 0 22.8761 0.684845 24.0951 1.90388C25.3142 3.12291 25.999 4.77627 25.999 6.50024C25.999 8.22421 25.3142 9.87758 24.0951 11.0966C22.8761 12.3156 21.2227 13.0005 19.4988 13.0005H12.9995V0Z" fill="#4E2BCC"/>
</svg>
