<svg width="28" height="28" viewBox="0 0 28 28" fill="none" xmlns="http://www.w3.org/2000/svg">
<path opacity="0.6" d="M13.2418 3.08185H9.49914C8.50669 3.08185 7.55488 3.4761 6.85311 4.17787C6.15133 4.87965 5.75708 5.83145 5.75708 6.82391C5.75708 7.81637 6.15133 8.76818 6.85311 9.46995C7.55488 10.1717 8.50669 10.566 9.49914 10.566H13.2418V3.08185Z" fill="#E5E3EB"/>
<path opacity="0.4" d="M13.2417 10.5659H9.49907C8.50676 10.5659 7.5551 10.9601 6.85343 11.6618C6.15176 12.3635 5.75757 13.3151 5.75757 14.3074C5.75757 15.2998 6.15176 16.2514 6.85343 16.9531C7.5551 17.6548 8.50676 18.049 9.49907 18.049H13.2417V10.5659Z" fill="#E5E3EB"/>
<path d="M20.7248 14.3075C20.7248 15.2999 20.3306 16.2517 19.6288 16.9535C18.927 17.6553 17.9752 18.0495 16.9828 18.0495C15.9903 18.0495 15.0385 17.6553 14.3367 16.9535C13.635 16.2517 13.2407 15.2999 13.2407 14.3075C13.2407 13.315 13.635 12.3632 14.3367 11.6614C15.0385 10.9597 15.9903 10.5654 16.9828 10.5654C17.9752 10.5654 18.927 10.9597 19.6288 11.6614C20.3306 12.3632 20.7248 13.315 20.7248 14.3075Z" fill="#E5E3EB"/>
<path opacity="0.2" d="M9.49917 18.0501H13.2418V21.7916C13.2416 22.5315 13.022 23.2547 12.6108 23.8698C12.1996 24.485 11.6152 24.9643 10.9316 25.2474C10.248 25.5304 9.49576 25.6044 8.77009 25.46C8.04441 25.3156 7.37784 24.9593 6.85465 24.4361C6.33146 23.9129 5.97514 23.2464 5.83074 22.5207C5.68633 21.795 5.76033 21.0428 6.04338 20.3592C6.32643 19.6756 6.80581 19.0912 7.42093 18.68C8.03604 18.2688 8.75927 18.0503 9.49917 18.0501Z" fill="#E5E3EB"/>
<path opacity="0.8" d="M13.2407 3.08185H16.9822C17.9747 3.08185 18.9265 3.4761 19.6283 4.17787C20.33 4.87965 20.7243 5.83145 20.7243 6.82391C20.7243 7.81637 20.33 8.76818 19.6283 9.46995C18.9265 10.1717 17.9747 10.566 16.9822 10.566H13.2407V3.08185Z" fill="#E5E3EB"/>
</svg>
