<svg width="43" height="43" viewBox="0 0 43 43" fill="none" xmlns="http://www.w3.org/2000/svg">
<path d="M1.27483 18.4662L13.7112 6.00838L17.3474 9.66613C16.831 11.495 17.6701 13.496 19.3484 14.4642V26.3842C18.0574 27.1157 17.1968 28.5143 17.1968 30.1065C17.1968 31.2477 17.6501 32.3423 18.4572 33.1493C19.2642 33.9563 20.3587 34.4097 21.5 34.4097C22.6413 34.4097 23.7358 33.9563 24.5428 33.1493C25.3499 32.3423 25.8032 31.2477 25.8032 30.1065C25.8032 28.5143 24.9426 27.1157 23.6516 26.3842V15.9273L28.1055 20.4242C27.9548 20.7469 27.9548 21.1127 27.9548 21.5C27.9548 22.6413 28.4082 23.7358 29.2152 24.5428C30.0222 25.3499 31.1168 25.8032 32.2581 25.8032C33.3994 25.8032 34.4939 25.3499 35.3009 24.5428C36.1079 23.7358 36.5613 22.6413 36.5613 21.5C36.5613 20.3587 36.1079 19.2642 35.3009 18.4572C34.4939 17.6501 33.3994 17.1968 32.2581 17.1968C31.8708 17.1968 31.505 17.1968 31.1823 17.3474L25.6526 11.8177C25.9198 10.8212 25.8162 9.76155 25.3611 8.83559C24.9061 7.90963 24.1304 7.18027 23.1783 6.78296C22.2531 6.4387 21.2848 6.35264 20.4242 6.58932L16.7665 2.95309L18.4662 1.27483C20.1445 -0.424944 22.8555 -0.424944 24.5338 1.27483L41.7252 18.4662C43.4249 20.1445 43.4249 22.8555 41.7252 24.5338L24.5338 41.7252C22.8555 43.4249 20.1445 43.4249 18.4662 41.7252L1.27483 24.5338C-0.424944 22.8555 -0.424944 20.1445 1.27483 18.4662Z" fill="#4E2BCC"/>
</svg>
