<svg width="22" height="23" viewBox="0 0 22 23" fill="none" xmlns="http://www.w3.org/2000/svg">
<path d="M5.79846 0.429833C6.64186 0.71444 7.44396 1.10926 8.18391 1.60403C9.22959 1.33638 10.3049 1.20211 11.3843 1.2044C12.499 1.2044 13.5745 1.3436 14.5825 1.60291C15.3222 1.10862 16.1239 0.714178 16.9668 0.429833C17.7493 0.163786 18.864 -0.267278 19.5263 0.465755C19.9753 0.964173 20.0876 1.79936 20.1673 2.43698C20.2571 3.14868 20.2784 4.07592 20.0427 4.99642C20.9441 6.16052 21.4874 7.54913 21.4874 9.06234C21.4874 11.3546 20.2458 13.3449 18.4082 14.7234C17.5234 15.3778 16.5426 15.8913 15.5008 16.2456C15.741 16.7957 15.8746 17.4041 15.8746 18.0428V21.4105C15.8746 21.7083 15.7563 21.9938 15.5458 22.2043C15.3353 22.4148 15.0497 22.5331 14.752 22.5331H8.01664C7.71892 22.5331 7.43339 22.4148 7.22287 22.2043C7.01235 21.9938 6.89408 21.7083 6.89408 21.4105V20.2981C5.82203 20.4294 4.92286 20.3127 4.1584 19.9882C3.35913 19.6492 2.80234 19.1239 2.38362 18.621C1.98624 18.145 1.55293 17.0718 0.926537 16.863C0.786639 16.8164 0.657285 16.7428 0.545862 16.6462C0.43444 16.5496 0.34313 16.432 0.277146 16.3002C0.143886 16.0339 0.121875 15.7255 0.215955 15.443C0.310036 15.1604 0.5125 14.9269 0.77881 14.7936C1.04512 14.6603 1.35346 14.6383 1.636 14.7324C2.38362 14.9816 2.87082 15.5204 3.20422 15.9538C3.74305 16.6497 4.18085 17.559 5.03399 17.9216C5.38536 18.0709 5.90061 18.1686 6.70661 18.0586L6.89408 18.0204C6.89667 17.4095 7.02386 16.8056 7.26789 16.2456C6.22601 15.8913 5.24526 15.3778 4.36046 14.7234C2.52282 13.3449 1.28127 11.3557 1.28127 9.06234C1.28127 7.55137 1.82347 6.16388 2.72264 5.00091C2.4869 4.08041 2.50711 3.15093 2.59691 2.4381L2.60252 2.39544C2.68447 1.74211 2.77989 0.973154 3.23789 0.465755C3.90021 -0.267278 5.01603 0.164909 5.79734 0.430956L5.79846 0.429833Z" fill="#E5E3EB"/>
</svg>
