<svg width="22" height="17" viewBox="0 0 22 17" fill="none" xmlns="http://www.w3.org/2000/svg">
<path fill-rule="evenodd" clip-rule="evenodd" d="M1.7242 16.1654H6.00974V9.39534L11.078 12.6765L16.1462 9.39534V16.1654H20.4318C20.619 16.1658 20.8045 16.1293 20.9777 16.0581C21.1509 15.9868 21.3083 15.8821 21.441 15.75C21.5737 15.6178 21.679 15.4609 21.7511 15.288C21.8231 15.1152 21.8604 14.9298 21.8608 14.7426V3.30104C21.8608 1.049 19.3592 -0.310282 17.459 0.906408L16.1462 1.74802L11.078 5.00286L6.00974 1.74802L4.69695 0.906408C2.79674 -0.311832 0.295166 1.049 0.295166 3.30104V14.7426C0.295573 14.9298 0.332858 15.1152 0.404894 15.288C0.476929 15.4609 0.582304 15.6178 0.715002 15.75C0.8477 15.8821 1.00512 15.9868 1.17828 16.0581C1.35144 16.1293 1.53694 16.1658 1.7242 16.1654Z" fill="#E5E3EB"/>
<path fill-rule="evenodd" clip-rule="evenodd" d="M6.00974 9.39511L0.295166 5.69699V3.30081C0.295166 1.04877 2.79674 -0.310515 4.69695 0.906175L6.00974 1.74933V9.39511ZM21.8608 5.69699V3.30081C21.8608 1.04877 19.3592 -0.310515 17.459 0.906175L16.1462 1.74933V9.39511L21.8608 5.69699Z" fill="#9E96B4"/>
</svg>
