<svg width="39" height="39" viewBox="0 0 39 39" fill="none" xmlns="http://www.w3.org/2000/svg">
<path d="M0.6875 0.6875V38.3125H38.3125V0.6875H0.6875ZM21.1636 30.031C21.1636 33.6927 19.0136 35.3643 15.8813 35.3643C13.0513 35.3643 11.4133 33.9037 10.5735 32.1313L13.4545 30.3924C14.0094 31.3747 14.5133 32.2065 15.7308 32.2065C16.8891 32.2065 17.6282 31.7523 17.6282 29.9812V17.9627H21.1636V30.031ZM29.5271 35.3643C26.2429 35.3643 24.1185 33.8029 23.0851 31.7523L25.9661 30.0901C26.7227 31.325 27.713 32.2401 29.4518 32.2401C30.9125 32.2401 31.8544 31.5091 31.8544 30.4932C31.8544 29.2838 30.8963 28.8552 29.2758 28.1417L28.3943 27.7641C25.8412 26.681 24.1534 25.3117 24.1534 22.4307C24.1534 19.7768 26.1771 17.7612 29.3268 17.7612C31.5776 17.7612 33.1901 18.5419 34.3498 20.5911L31.5951 22.3555C30.9904 21.2724 30.3347 20.8438 29.3188 20.8438C28.2868 20.8438 27.631 21.4995 27.631 22.3555C27.631 23.4143 28.2868 23.8417 29.8066 24.5055L30.6881 24.8831C33.6954 26.1677 35.3831 27.4872 35.3831 30.4422C35.3831 33.6174 32.8797 35.363 29.5284 35.363L29.5271 35.3643Z" fill="#4E2BCC"/>
</svg>
