<svg width="23" height="22" viewBox="0 0 23 22" fill="none" xmlns="http://www.w3.org/2000/svg">
<path d="M5.5528 3.24581C5.55249 3.85674 5.30951 4.44252 4.8773 4.87429C4.4451 5.30607 3.85907 5.54846 3.24815 5.54816C2.63722 5.54785 2.05144 5.30487 1.61967 4.87267C1.18789 4.44046 0.945496 3.85443 0.945801 3.24351C0.946107 2.63258 1.18909 2.0468 1.62129 1.61503C2.0535 1.18325 2.63953 0.940857 3.25045 0.941162C3.86138 0.941468 4.44716 1.18445 4.87893 1.61666C5.31071 2.04886 5.5531 2.63489 5.5528 3.24581ZM5.6219 7.2539H1.01491V21.6738H5.6219V7.2539ZM12.901 7.2539H8.317V21.6738H12.8549V14.1068C12.8549 9.8914 18.3487 9.49981 18.3487 14.1068V21.6738H22.8981V12.5404C22.8981 5.43414 14.7668 5.69904 12.8549 9.18884L12.901 7.2539Z" fill="#E5E3EB"/>
</svg>
