<svg width="38" height="39" viewBox="0 0 38 39" fill="none" xmlns="http://www.w3.org/2000/svg">
<path d="M14.9875 0.75C13.5653 0.75 12.2013 1.31498 11.1956 2.32064C10.19 3.3263 9.625 4.69028 9.625 6.1125V9.2625H17.6688C18.4 9.2625 19 10.3312 19 11.0625H5.6125C4.19028 11.0625 2.8263 11.6275 1.82064 12.6331C0.814976 13.6388 0.25 15.0028 0.25 16.425V23.5144C0.25 24.9366 0.814976 26.3006 1.82064 27.3062C2.8263 28.3119 4.19028 28.8769 5.6125 28.8769H7.825V23.8519C7.82253 23.1485 7.95893 22.4516 8.22637 21.8011C8.49382 21.1507 8.88704 20.5593 9.3835 20.0611C9.87996 19.5629 10.4699 19.1676 11.1194 18.8979C11.769 18.6282 12.4654 18.4894 13.1688 18.4894H23.0125C25.975 18.4894 28.375 16.1062 28.375 13.1437V6.1125C28.375 4.69028 27.81 3.3263 26.8044 2.32064C25.7987 1.31498 24.4347 0.75 23.0125 0.75H14.9875ZM13.6375 3.76875C14.3875 3.76875 14.9875 3.99375 14.9875 5.1C14.9875 6.20625 14.3875 6.77062 13.6375 6.77062C12.9063 6.77062 12.3063 6.20812 12.3063 5.10187C12.3063 3.99563 12.9063 3.76875 13.6375 3.76875Z" fill="#271566"/>
<path d="M30.1731 10.125V15.15C30.1753 15.8532 30.0388 16.5499 29.7712 17.2001C29.5037 17.8504 29.1104 18.4415 28.614 18.9395C28.1175 19.4375 27.5277 19.8326 26.8782 20.1022C26.2288 20.3719 25.5325 20.5106 24.8294 20.5106H14.9875C14.2842 20.5082 13.5873 20.6446 12.9368 20.912C12.2863 21.1794 11.695 21.5727 11.1968 22.0691C10.6986 22.5656 10.3033 23.1555 10.0336 23.8051C9.76383 24.4546 9.625 25.151 9.625 25.8544V32.8856C9.625 34.3078 10.19 35.6718 11.1956 36.6775C12.2013 37.6832 13.5653 38.2481 14.9875 38.2481H23.0125C24.4344 38.2481 25.7981 37.6834 26.8037 36.6781C27.8093 35.6729 28.3745 34.3094 28.375 32.8875V29.7375H20.3294C19.5981 29.7375 19 28.6688 19 27.9375H32.3875C33.8097 27.9375 35.1737 27.3725 36.1794 26.3669C37.185 25.3612 37.75 23.9972 37.75 22.575V15.4875C37.75 14.0653 37.185 12.7013 36.1794 11.6956C35.1737 10.69 33.8097 10.125 32.3875 10.125H30.1731ZM12.1 18.5869L12.0925 18.5944L12.1638 18.5869H12.1ZM24.3625 32.2294C25.0937 32.2294 25.6937 32.7919 25.6937 33.8981C25.6937 34.073 25.6593 34.2461 25.5924 34.4076C25.5255 34.5691 25.4275 34.7158 25.3038 34.8395C25.1802 34.9631 25.0335 35.0611 24.8719 35.128C24.7104 35.1949 24.5373 35.2294 24.3625 35.2294C23.6125 35.2294 23.0125 35.0044 23.0125 33.8981C23.0125 32.7919 23.6125 32.2294 24.3625 32.2294Z" fill="#4E2BCC"/>
</svg>
