<svg width="42" height="26" viewBox="0 0 42 26" fill="none" xmlns="http://www.w3.org/2000/svg">
<path d="M21 0C15.393 0 11.907 2.793 10.5 8.4C12.6 5.607 15.057 4.557 17.85 5.25C19.446 5.649 20.601 6.804 21.861 8.085C23.919 10.185 26.25 12.6 31.5 12.6C37.107 12.6 40.593 9.807 42 4.2C39.9 6.993 37.443 8.043 34.65 7.35C33.054 6.951 31.92 5.796 30.639 4.515C28.581 2.415 26.25 0 21 0ZM10.5 12.6C4.893 12.6 1.407 15.393 0 21C2.1 18.207 4.557 17.157 7.35 17.85C8.946 18.249 10.08 19.404 11.361 20.685C13.419 22.785 15.75 25.2 21 25.2C26.607 25.2 30.093 22.407 31.5 16.8C29.4 19.593 26.943 20.643 24.15 19.95C22.554 19.551 21.42 18.396 20.139 17.115C18.081 15.015 15.75 12.6 10.5 12.6Z" fill="#4E2BCC"/>
</svg>
