<svg width="24" height="23" viewBox="0 0 24 23" fill="none" xmlns="http://www.w3.org/2000/svg">
<path d="M20.0672 3.34847C19.0379 2.3091 17.812 1.48498 16.461 0.924146C15.11 0.363309 13.6608 0.0769709 12.198 0.0818171C6.06885 0.0818171 1.07345 5.07722 1.07345 11.2064C1.07345 13.1709 1.58983 15.0793 2.55523 16.7631L0.983643 22.5331L6.8771 20.9839C8.50481 21.8708 10.3346 22.3422 12.198 22.3422C18.3272 22.3422 23.3226 17.3468 23.3226 11.2176C23.3226 8.24285 22.1664 5.44767 20.0672 3.34847ZM12.198 20.4563C10.5367 20.4563 8.90893 20.0073 7.48328 19.1654L7.14651 18.9633L3.64412 19.8838L4.57584 16.4712L4.35133 16.1232C3.42808 14.6494 2.93794 12.9456 2.9369 11.2064C2.9369 6.10998 7.09038 1.9565 12.1868 1.9565C14.6565 1.9565 16.9802 2.9219 18.7201 4.6731C19.5818 5.53058 20.2647 6.55063 20.7291 7.67408C21.1935 8.79752 21.4302 10.002 21.4255 11.2176C21.448 16.3141 17.2945 20.4563 12.198 20.4563ZM17.272 13.5413C16.9914 13.4066 15.6219 12.7331 15.3749 12.6321C15.1167 12.5423 14.9371 12.4974 14.7463 12.7668C14.5554 13.0474 14.0278 13.6761 13.8707 13.8557C13.7135 14.0465 13.5451 14.0689 13.2645 13.923C12.9838 13.7883 12.0858 13.4852 11.0306 12.5423C10.1999 11.8014 9.64983 10.8921 9.48144 10.6115C9.32428 10.3308 9.45899 10.1849 9.60492 10.0389C9.7284 9.91547 9.88556 9.7134 10.0203 9.55625C10.155 9.39909 10.2111 9.27561 10.3009 9.096C10.3907 8.90516 10.3458 8.748 10.2785 8.61329C10.2111 8.47859 9.64983 7.10906 9.42531 6.54778C9.2008 6.00895 8.96506 6.0763 8.79668 6.06508H8.25785C8.06701 6.06508 7.77515 6.13243 7.51696 6.41307C7.26999 6.69371 6.55155 7.36725 6.55155 8.73678C6.55155 10.1063 7.55063 11.4309 7.68534 11.6105C7.82005 11.8014 9.64983 14.6078 12.4338 15.8089C13.0961 16.1008 13.6125 16.2692 14.0166 16.3927C14.6789 16.6059 15.2851 16.5723 15.7678 16.5049C16.3066 16.4263 17.418 15.8314 17.6425 15.1803C17.8782 14.5292 17.8782 13.9791 17.7996 13.8557C17.7211 13.7322 17.5527 13.6761 17.272 13.5413Z" fill="#E5E3EB"/>
</svg>
